<svg id="visual" viewBox="0 0 540 960" width="540" height="960" xmlns="http://www.w3.org/2000/svg" xmlns:xlink="http://www.w3.org/1999/xlink" version="1.1"><path d="M0 107L22.5 100.5C45 94 90 81 135 74.5C180 68 225 68 270 66.5C315 65 360 62 405 70C450 78 495 97 517.5 106.5L540 116L540 0L517.5 0C495 0 450 0 405 0C360 0 315 0 270 0C225 0 180 0 135 0C90 0 45 0 22.5 0L0 0Z" fill="#c9e4ff"></path><path d="M0 183L22.5 175C45 167 90 151 135 152.7C180 154.3 225 173.7 270 178.5C315 183.3 360 173.7 405 173.7C450 173.7 495 183.3 517.5 188.2L540 193L540 114L517.5 104.5C495 95 450 76 405 68C360 60 315 63 270 64.5C225 66 180 66 135 72.5C90 79 45 92 22.5 98.5L0 105Z" fill="#d3e8ff"></path><path d="M0 385L22.5 388.2C45 391.3 90 397.7 135 392.8C180 388 225 372 270 370.5C315 369 360 382 405 414C450 446 495 497 517.5 522.5L540 548L540 191L517.5 186.2C495 181.3 450 171.7 405 171.7C360 171.7 315 181.3 270 176.5C225 171.7 180 152.3 135 150.7C90 149 45 165 22.5 173L0 181Z" fill="#dcedff"></path><path d="M0 577L22.5 569C45 561 90 545 135 524.2C180 503.3 225 477.7 270 477.7C315 477.7 360 503.3 405 533.8C450 564.3 495 599.7 517.5 617.3L540 635L540 546L517.5 520.5C495 495 450 444 405 412C360 380 315 367 270 368.5C225 370 180 386 135 390.8C90 395.7 45 389.3 22.5 386.2L0 383Z" fill="#e5f1ff"></path><path d="M0 721L22.5 732.2C45 743.3 90 765.7 135 772C180 778.3 225 768.7 270 759.2C315 749.7 360 740.3 405 753.2C450 766 495 801 517.5 818.5L540 836L540 633L517.5 615.3C495 597.7 450 562.3 405 531.8C360 501.3 315 475.7 270 475.7C225 475.7 180 501.3 135 522.2C90 543 45 559 22.5 567L0 575Z" fill="#eef6ff"></path><path d="M0 884L22.5 885.7C45 887.3 90 890.7 135 895.5C180 900.3 225 906.7 270 901.8C315 897 360 881 405 882.7C450 884.3 495 903.7 517.5 913.3L540 923L540 834L517.5 816.5C495 799 450 764 405 751.2C360 738.3 315 747.7 270 757.2C225 766.7 180 776.3 135 770C90 763.7 45 741.3 22.5 730.2L0 719Z" fill="#f6faff"></path><path d="M0 961L22.5 961C45 961 90 961 135 961C180 961 225 961 270 961C315 961 360 961 405 961C450 961 495 961 517.5 961L540 961L540 921L517.5 911.3C495 901.7 450 882.3 405 880.7C360 879 315 895 270 899.8C225 904.7 180 898.3 135 893.5C90 888.7 45 885.3 22.5 883.7L0 882Z" fill="#ffffff"></path></svg>